# xmcd
#
# Track frame offsets: 
#        150
#        18250
#        54362
#
# Disc length: 1043 seconds
#
# Revision: 2
# Processed by: cddbd v1.5.2PL0 Copyright (c) Steve Scherf et al.
# Submitted via: ExactAudioCopy v0.99pb4
#
DISCID=18041103
DTITLE=Talla2XLC - What Time Is Love
DYEAR=1997
DGENRE=Trance
TTITLE0=What Time Is Love (Shortcut)
TTITLE1=What Time Is Love (Club Mix)
TTITLE2=Back To The Roots
EXTD=
EXTT0=
EXTT1=
EXTT2=
PLAYORDER=
